HIERARCHY
ROOT Hips
{
	OFFSET 0.000000 0.000000 0.000000
	CHANNELS 6 Xposition Yposition Zposition Zrotation Yrotation Xrotation 
	JOINT LHipJoint
	{
		OFFSET 0.000000 0.000000 0.000000
		CHANNELS 3 Zrotation Yrotation Xrotation
		JOINT LeftUpLeg
		{
			OFFSET 1.363060 -1.794630 0.839290
			CHANNELS 3 Zrotation Yrotation Xrotation
			JOINT LeftLeg
			{
				OFFSET 2.448110 -6.726130 0.000000
				CHANNELS 3 Zrotation Yrotation Xrotation
				JOINT LeftFoot
				{
					OFFSET 2.562200 -7.039590 0.000000
					CHANNELS 3 Zrotation Yrotation Xrotation
					JOINT LeftToeBase
					{
						OFFSET 0.157640 -0.433110 2.322550
						CHANNELS 3 Zrotation Yrotation Xrotation
						End Site
						{
							OFFSET 0.000000 0.000000 0.000000
						}
					}
				}
			}
		}
	}
	JOINT RHipJoint
	{
		OFFSET 0.000000 0.000000 0.000000
		CHANNELS 3 Zrotation Yrotation Xrotation
		JOINT RightUpLeg
		{
			OFFSET -1.305520 -1.794630 0.839290
			CHANNELS 3 Zrotation Yrotation Xrotation
			JOINT RightLeg
			{
				OFFSET -2.542530 -6.985550 0.000000
				CHANNELS 3 Zrotation Yrotation Xrotation
				JOINT RightFoot
				{
					OFFSET -2.568260 -7.056230 0.000000
					CHANNELS 3 Zrotation Yrotation Xrotation
					JOINT RightToeBase
					{
						OFFSET -0.164730 -0.452590 2.363150
						CHANNELS 3 Zrotation Yrotation Xrotation
						End Site
						{
							OFFSET 0.000000 0.000000 0.000000
						}
					}
				}
			}
		}
	}
	JOINT LowerBack
	{
		OFFSET 0.000000 0.000000 0.000000
		CHANNELS 3 Zrotation Yrotation Xrotation
		JOINT Spine
		{
			OFFSET 0.028270 2.035590 -0.193380
			CHANNELS 3 Zrotation Yrotation Xrotation
			JOINT Spine1
			{
				OFFSET 0.056720 2.048850 -0.042750
				CHANNELS 3 Zrotation Yrotation Xrotation
				JOINT Neck
				{
					OFFSET 0.000000 0.000000 0.000000
					CHANNELS 3 Zrotation Yrotation Xrotation
					JOINT Neck1
					{
						OFFSET -0.054170 1.746240 0.172020
						CHANNELS 3 Zrotation Yrotation Xrotation
						JOINT Head
						{
							OFFSET 0.104070 1.761360 -0.123970
							CHANNELS 3 Zrotation Yrotation Xrotation
							End Site
							{
								OFFSET 0.000000 0.000000 0.000000
							}
						}
					}
				}
				JOINT LeftShoulder
				{
					OFFSET 0.000000 0.000000 0.000000
					CHANNELS 3 Zrotation Yrotation Xrotation
					JOINT LeftArm
					{
						OFFSET 3.362410 1.200890 -0.311210
						CHANNELS 3 Zrotation Yrotation Xrotation
						JOINT LeftForeArm
						{
							OFFSET 4.983000 -0.000000 -0.000000
							CHANNELS 3 Zrotation Yrotation Xrotation
							JOINT LeftHand
							{
								OFFSET 3.483560 -0.000000 -0.000000
								CHANNELS 3 Zrotation Yrotation Xrotation
								JOINT LeftFingerBase
								{
									OFFSET 0.000000 0.000000 0.000000
									CHANNELS 3 Zrotation Yrotation Xrotation
									JOINT LeftHandIndex1
									{
										OFFSET 0.715260 -0.000000 -0.000000
										CHANNELS 3 Zrotation Yrotation Xrotation
										End Site
										{
											OFFSET 0.000000 0.000000 0.000000
										}
									}
								}
								JOINT LThumb
								{
									OFFSET 0.000000 0.000000 0.000000
									CHANNELS 3 Zrotation Yrotation Xrotation
									End Site
									{
										OFFSET 0.000000 0.000000 0.000000
									}
								}
							}
						}
					}
				}
				JOINT RightShoulder
				{
					OFFSET 0.000000 0.000000 0.000000
					CHANNELS 3 Zrotation Yrotation Xrotation
					JOINT RightArm
					{
						OFFSET -3.136600 1.374050 -0.404650
						CHANNELS 3 Zrotation Yrotation Xrotation
						JOINT RightForeArm
						{
							OFFSET -5.241900 -0.000000 -0.000000
							CHANNELS 3 Zrotation Yrotation Xrotation
							JOINT RightHand
							{
								OFFSET -3.444170 -0.000000 -0.000000
								CHANNELS 3 Zrotation Yrotation Xrotation
								JOINT RightFingerBase
								{
									OFFSET 0.000000 0.000000 0.000000
									CHANNELS 3 Zrotation Yrotation Xrotation
									JOINT RightHandIndex1
									{
										OFFSET -0.622530 -0.000000 -0.000000
										CHANNELS 3 Zrotation Yrotation Xrotation
										End Site
										{
											OFFSET 0.000000 0.000000 0.000000
										}
									}
								}
								JOINT RThumb
								{
									OFFSET 0.000000 0.000000 0.000000
									CHANNELS 3 Zrotation Yrotation Xrotation
									End Site
									{
										OFFSET 0.000000 0.000000 0.000000
									}
								}
							}
						}
					}
				}
			}
		}
	}
}
MOTION
Frames: 10
Frame Time: 0.008333
6.176449 20.694588 0.864996 25.160759 -81.942381 -9.170586 -11.481031 4.734884 5.307987 -3.889290 -15.613811 -15.436612 2.023407 3.438848 77.770033 3.456066 17.489406 32.010924 9.496900 0.000000 -63.292800 12.127182 -4.536503 2.784517 4.162509 8.086116 -7.267547 -3.205584 -4.366136 78.374177 -1.983714 -9.145934 7.326515 -1.867800 -0.000000 -79.735800 -3.924929 -1.395795 -8.952288 -0.959220 -1.220192 -5.027400 -2.563639 -1.388684 -2.119721 6.906976 -8.825536 -3.795967 0.267457 -0.055931 1.175877 0.000000 0.000000 0.000000 21.995933 2.728119 -3.366949 -13.638011 -25.224026 -40.452475 177.162577 -64.074376 179.553207 41.893818 -34.675903 -14.420891 -0.575765 1.433726 -0.000000 0.000000 0.000000 0.000000 0.000000 0.000000 0.000000 -8.732256 -5.745781 -0.736168 18.713070 13.116589 -47.205143 -178.610111 60.593791 179.753393 -40.099946 35.351378 -13.947476 0.655402 -1.217193 -0.000000 0.000000 0.000000 0.000000 0.000000 0.000000 0.000000 
5.985039 20.809974 0.846120 25.071612 -81.956453 -9.557995 -11.699579 4.793460 5.087317 -3.708910 -15.763817 -16.365751 2.417352 3.941327 83.624781 3.488581 17.823482 31.781522 9.630400 0.000000 -62.673500 12.400958 -4.680214 2.696513 3.963003 8.756980 -7.806992 -3.780438 -4.835078 84.791580 -1.889536 -8.707345 5.070586 -1.467801 0.000000 -79.231500 -4.009639 -1.395577 -8.613845 -0.962592 -1.208240 -4.931148 -2.448203 -1.378945 -1.988295 6.967709 -9.239859 -3.865852 0.383977 -0.046347 1.155153 0.000000 0.000000 0.000000 22.301789 3.111017 -3.440854 -12.903187 -24.425250 -42.216220 177.016828 -62.538789 179.554736 42.880502 -35.034522 -14.950704 -0.603983 1.445594 0.000000 0.000000 0.000000 0.000000 0.000000 0.000000 0.000000 -9.245049 -6.322200 -0.744170 17.844732 12.368227 -48.608612 -178.552590 58.874290 179.756429 -41.198797 35.799734 -14.558931 0.694585 -1.243611 -0.000000 0.000000 0.000000 0.000000 0.000000 0.000000 0.000000 
5.795309 20.915571 0.827398 24.921466 -82.008398 -9.848683 -11.942606 4.853800 4.873326 -3.411864 -15.997913 -17.252829 2.889620 4.446841 89.223004 3.475483 17.662102 31.713548 9.495000 0.000000 -62.041100 12.683643 -4.831445 2.617511 3.728658 9.549725 -8.278496 -4.458261 -5.310461 91.026294 -1.761778 -8.055059 2.911111 -1.086600 -0.000000 -78.502200 -4.072802 -1.389040 -8.277211 -0.963207 -1.192290 -4.831462 -2.340467 -1.364450 -1.851585 7.038183 -9.684193 -3.959409 0.490993 -0.036867 1.127100 0.000000 0.000000 0.000000 22.583902 3.550648 -3.507197 -12.249492 -23.709629 -43.908226 176.878233 -61.075286 179.556730 43.846181 -35.293759 -15.437809 -0.633473 1.455950 -0.000000 0.000000 0.000000 0.000000 0.000000 0.000000 0.000000 -9.681665 -6.933810 -0.748602 17.010866 11.707453 -49.883439 -178.505028 57.278655 179.760136 -42.226632 36.260697 -15.162193 0.732441 -1.270408 -0.000000 0.000000 0.000000 0.000000 0.000000 0.000000 0.000000 
5.606300 21.011540 0.809253 24.710031 -82.103658 -10.035320 -12.206746 4.909877 4.675846 -2.998592 -16.340570 -18.091883 3.434942 4.945083 94.529161 3.418231 17.032376 31.798662 9.111000 0.000000 -61.547200 12.972228 -4.983769 2.556126 3.458949 10.484799 -8.683608 -5.243808 -5.783470 97.054084 -1.615474 -7.304800 0.797820 -0.755000 -0.000001 -77.482700 -4.112413 -1.373501 -7.961940 -0.960666 -1.169812 -4.732929 -2.241063 -1.342872 -1.711945 7.117323 -10.144635 -4.072306 0.586916 -0.027703 1.093232 0.000000 0.000000 0.000000 22.840820 4.035009 -3.565452 -11.672059 -23.088901 -45.492940 176.749815 -59.698554 179.559231 44.736086 -35.473851 -15.867101 -0.662988 1.465292 -0.000000 0.000000 0.000000 0.000000 0.000000 0.000000 0.000000 -10.035800 -7.560502 -0.749182 16.198536 11.126903 -51.010236 -178.469367 55.808143 179.764498 -43.130251 36.744261 -15.739863 0.767789 -1.297995 -0.000000 0.000000 0.000000 0.000000 0.000000 0.000000 0.000000 
5.417903 21.098352 0.792214 24.353665 -82.236997 -10.050142 -12.488977 4.957081 4.497969 -2.464365 -16.819764 -18.845930 4.043399 5.429363 99.498239 3.318589 15.970380 32.033142 8.501200 -0.000000 -61.311200 13.257398 -5.130659 2.509995 3.170782 11.562977 -8.989923 -6.134905 -6.245694 102.826240 -1.468704 -6.589408 -1.294634 -0.491000 0.000000 -76.125600 -4.118671 -1.349211 -7.665720 -0.952658 -1.141530 -4.636109 -2.150625 -1.314800 -1.573764 7.200602 -10.602839 -4.199966 0.671143 -0.018996 1.054965 0.000000 0.000000 0.000000 23.063997 4.549174 -3.614482 -11.156612 -22.568723 -46.939289 176.634246 -58.419771 179.562178 45.513236 -35.597538 -16.231577 -0.691544 1.474163 -0.000000 0.000000 0.000000 0.000000 0.000000 0.000000 0.000000 -10.311351 -8.177701 -0.745329 15.404940 10.609796 -51.974264 -178.446463 54.463550 179.769371 -43.868566 37.253343 -16.275249 0.799596 -1.326612 -0.000000 0.000000 0.000000 0.000000 0.000000 0.000000 0.000000 
5.228022 21.176239 0.776636 24.005391 -82.415799 -9.993786 -12.779495 4.989749 4.365028 -1.832116 -17.460305 -19.573080 4.695824 5.885119 104.088245 3.180926 14.522970 32.441845 7.695101 -0.000000 -61.274500 13.542829 -5.263126 2.507748 2.816237 12.826821 -9.268497 -7.122714 -6.678902 108.298348 -1.336413 -5.991314 -3.329658 -0.293600 0.000000 -74.665400 -4.107675 -1.313177 -7.449698 -0.942303 -1.103736 -4.553784 -2.067648 -1.277526 -1.435293 7.285891 -11.046055 -4.337215 0.742842 -0.010952 1.014379 0.000000 0.000000 0.000000 23.272487 5.062731 -3.652750 -10.728065 -22.114756 -48.213378 176.533053 -57.223345 179.565637 46.142089 -35.714331 -16.538831 -0.717999 1.483781 -0.000000 0.000000 0.000000 0.000000 0.000000 0.000000 0.000000 -10.510922 -8.766570 -0.736341 14.624684 10.142867 -52.761858 -178.436706 53.241187 179.774634 -44.414557 37.795914 -16.758045 0.827054 -1.356568 -0.000000 0.000000 0.000000 0.000000 0.000000 0.000000 0.000000 
5.037153 21.245987 0.763003 23.463426 -82.613921 -9.706534 -13.074810 5.007223 4.270995 -1.086970 -18.291132 -20.203358 5.372310 6.311202 108.239004 3.006716 12.722194 33.006988 6.698400 0.000000 -61.438300 13.808568 -5.374760 2.530010 2.436469 14.237720 -9.452158 -8.181263 -7.074313 113.378318 -1.237926 -5.626044 -5.280761 -0.151600 0.000000 -73.007700 -4.061363 -1.271547 -7.279358 -0.925339 -1.063350 -4.480169 -1.993293 -1.237334 -1.302320 7.367494 -11.454303 -4.479501 0.802414 -0.003633 0.972588 0.000000 0.000000 0.000000 23.450136 5.560158 -3.679276 -10.362906 -21.727699 -49.294771 176.446602 -56.107402 179.569417 46.624538 -35.835896 -16.793863 -0.742239 1.494632 -0.000000 0.000000 0.000000 0.000000 0.000000 0.000000 0.000000 -10.648973 -9.304202 -0.721428 13.871480 9.699153 -53.367659 -178.438838 52.130944 179.780027 -44.761399 38.359344 -17.176360 0.849928 -1.387746 -0.000000 0.000000 0.000000 0.000000 0.000000 0.000000 0.000000 
4.844675 21.307889 0.751604 22.703776 -82.814217 -9.154643 -13.366473 5.007391 4.225165 -0.235704 -19.334860 -20.749942 6.045624 6.701300 111.898881 2.800634 10.611134 33.721611 5.520500 0.000000 -61.744600 14.044536 -5.457522 2.580025 2.028308 15.789503 -9.564170 -9.272351 -7.417988 117.985644 -1.186323 -5.541503 -7.080576 -0.042800 0.000000 -71.231900 -3.980057 -1.228170 -7.165589 -0.901403 -1.024214 -4.418021 -1.927378 -1.198235 -1.175567 7.441368 -11.813945 -4.622732 0.850291 0.002889 0.930897 0.000000 0.000000 0.000000 23.596079 6.018575 -3.692480 -10.062921 -21.380976 -50.172460 176.375107 -55.056184 179.573481 46.963476 -35.987020 -17.009172 -0.764133 1.507471 -0.000000 0.000000 0.000000 0.000000 0.000000 0.000000 0.000000 -10.740049 -9.775526 -0.700026 13.161590 9.259608 -53.793684 -178.451380 51.118748 179.785387 -44.915143 38.938181 -17.526293 0.868215 -1.420099 -0.000000 0.000000 0.000000 0.000000 0.000000 0.000000 0.000000 
4.649932 21.362715 0.742348 21.746194 -82.998817 -8.348671 -13.644044 4.989247 4.237167 0.711447 -20.595636 -21.248831 6.686290 7.049631 115.024259 2.570044 8.245634 34.544841 4.171201 -0.000000 -61.992100 14.243823 -5.503956 2.660953 1.574758 17.458865 -9.657399 -10.343111 -7.698155 122.034458 -1.190431 -5.756808 -8.659178 0.054300 0.000000 -69.476900 -3.874943 -1.187479 -7.122739 -0.872754 -0.990013 -4.370768 -1.870002 -1.164209 -1.055016 7.509481 -12.118016 -4.762802 0.886329 0.008497 0.890624 0.000000 0.000000 0.000000 23.723523 6.416925 -3.692692 -9.845001 -21.046027 -50.832165 176.316872 -54.052687 179.577731 47.172806 -36.186954 -17.199259 -0.783624 1.522878 -0.000000 0.000000 0.000000 0.000000 0.000000 0.000000 0.000000 -10.788574 -10.173321 -0.672859 12.508416 8.810948 -54.040190 -178.471944 50.195683 179.790537 -44.901619 39.520375 -17.809338 0.882231 -1.453190 -0.000000 0.000000 0.000000 0.000000 0.000000 0.000000 0.000000 
4.453177 21.410656 0.735121 20.527898 -83.140539 -7.237634 -13.898897 4.952383 4.304148 1.749935 -22.069575 -21.711358 7.264838 7.355094 117.577711 2.325732 5.708909 35.423283 2.678700 -0.000000 -62.203100 14.394979 -5.509497 2.759483 1.096386 19.194203 -9.755633 -11.330704 -7.911828 125.443190 -1.252954 -6.266186 -9.974261 0.155100 -0.000001 -67.760800 -3.744065 -1.156343 -7.131376 -0.838787 -0.967584 -4.334947 -1.822159 -1.141819 -0.941864 7.569730 -12.362938 -4.897818 0.912198 0.013271 0.852129 0.000000 0.000000 0.000000 23.823043 6.748466 -3.679984 -9.697142 -20.714429 -51.285981 176.271112 -53.090164 179.582090 47.278548 -36.437607 -17.374722 -0.801127 1.540949 -0.000000 0.000000 0.000000 0.000000 0.000000 0.000000 0.000000 -10.812128 -10.496969 -0.640957 11.942904 8.349026 -54.122090 -178.498396 49.347879 179.795365 -44.751670 40.096797 -18.031194 0.892483 -1.486666 -0.000000 0.000000 0.000000 0.000000 0.000000 0.000000 0.000000 
